<svg width="200" height="200" viewBox="0 0 200 200" fill="none" xmlns="http://www.w3.org/2000/svg">
<path d="M22.2098 79.2191C21.842 77.773 22.3001 76.2419 23.4017 75.2355L67.4133 35.0256C68.2119 34.296 69.3221 34.0137 70.3722 34.2731L128.247 48.5692C129.695 48.927 130.829 50.0532 131.197 51.4993L147.315 114.872C147.866 117.037 146.557 119.239 144.392 119.789L43.2455 145.515C41.0803 146.066 38.8786 144.757 38.3279 142.592L22.2098 79.2191Z" fill="#648CFE"/>
<path d="M146.476 111.571L130.928 50.4423C130.771 49.8226 129.991 49.622 129.554 50.0889L86.9871 95.578C86.1837 96.4366 86.5353 97.8383 87.6488 98.216L141.256 116.399C144.295 117.43 147.267 114.681 146.476 111.571Z" fill="#A8CCF8"/>
<path d="M37.4884 139.291L21.9409 78.1619C21.7833 77.5422 22.373 76.9932 22.9798 77.1946L82.1073 96.8189C83.2233 97.1893 83.5841 98.5886 82.7863 99.4524L44.3805 141.038C42.2033 143.396 38.2794 142.401 37.4884 139.291Z" fill="#A8CCF8"/>
<path d="M143.379 106.174L84.6431 81.9198L78.5221 82.9849L142.529 108.763L143.379 106.174Z" fill="#2538BF"/>
<path d="M36.6779 134.359L80.017 81.1296L81.4024 80.7772L84.6431 81.9197L38.8285 134.754L36.6779 134.359Z" fill="#2538BF"/>
<path d="M43.2451 145.515L144.392 119.79C146.557 119.239 147.866 117.038 147.315 114.872L145.423 107.433C145.29 106.91 144.906 106.488 144.398 106.307L83.4576 84.5978C82.2196 84.1568 80.8378 84.5082 79.961 85.4871L36.7983 133.674C36.4386 134.076 36.3025 134.63 36.4354 135.153L38.3276 142.592C38.8783 144.757 41.0799 146.066 43.2451 145.515Z" fill="#648CFE"/>
<defs>
<clipPath id="clip0_567_90096">
<rect width="200" height="195.261" fill="white" transform="translate(0 2)"/>
</clipPath>
</defs>
</svg>
