<svg width="200" height="200" viewBox="0 0 200 200" fill="none" xmlns="http://www.w3.org/2000/svg">
<path d="M121.449 169.446C121.238 169.281 121.273 168.955 121.513 168.835L129.697 164.743L163.037 170.541C163.037 170.541 162.637 173.222 160.863 174.89C157.532 178.023 150.716 179.239 148.542 179.964C146.437 179.577 144.193 177.789 144.193 177.789C139.843 177.166 132.397 176.459 126.073 172.716C124.474 171.769 122.36 170.156 121.449 169.446Z" fill="#2538BF"/>
<path d="M142.744 158.946L152.891 159.671L160.138 151.698C160.138 151.698 161.888 153.075 162.313 156.047C162.517 157.474 163.616 162.353 163.762 165.469C163.882 168.015 163.038 170.543 163.038 170.543L148.542 175.616L142.744 158.946Z" fill="#C28030"/>
<path d="M144.772 144.276C144.948 143.936 145.351 143.789 145.704 143.936C147.867 144.838 155.133 147.956 159.564 150.933C163.475 153.562 159.304 162.72 158.748 163.894C158.714 163.965 158.738 164.046 158.805 164.086C159.759 164.648 166.14 168.635 162.277 172.547C158.369 176.505 150.201 179.443 148.698 179.96C148.542 180.014 148.377 180.012 148.222 179.955C146.828 179.438 139.561 176.687 135.067 173.954C130.868 171.4 125.125 166.45 123.414 164.949C123.196 164.758 123.274 164.401 123.55 164.315C125.578 163.681 131.96 161.496 135.567 158.107C139.27 154.627 143.599 146.538 144.772 144.276Z" fill="#FFBF39"/>
<defs>
<clipPath id="clip0_567_90096">
<rect width="200" height="195.261" fill="white" transform="translate(0 2)"/>
</clipPath>
</defs>
</svg>
