<svg width="95" height="99" viewBox="0 0 95 99" fill="none" xmlns="http://www.w3.org/2000/svg">
<path d="M2.98846 77.9606L60.3033 83.6112C61.6252 83.7415 62.8016 82.7733 62.9279 81.451L68.3341 24.8658L59.026 14.4289L50.1691 4.71061L10.6207 0.646358C9.29831 0.51046 8.11737 1.47537 7.98694 2.79832L0.835508 75.3367C0.705461 76.6558 1.66937 77.8305 2.98846 77.9606Z" fill="#648CFE"/>
<path d="M50.2058 4.54926L68.4009 24.7768L51.8833 23.1484C49.9628 22.959 48.5594 21.2487 48.7488 19.3282L50.2058 4.54926Z" fill="#2538BF"/>
<path d="M34.9848 97.6496L92.1171 90.3815C93.4348 90.2138 94.3657 89.0078 94.1941 87.6906L86.8504 31.3241L75.4499 23.2248L64.6495 15.7254L25.1903 20.5794C23.8708 20.7418 22.9347 21.9456 23.1025 23.2644L32.3011 95.5717C32.4684 96.8865 33.6699 97.8169 34.9848 97.6496Z" fill="#2538BF"/>
<path d="M32.5847 95.8497L89.717 88.5816C91.0346 88.414 91.9656 87.2079 91.794 85.8907L84.4502 29.5243L73.0498 21.4249L62.2494 13.9255L22.7901 18.7796C21.4707 18.9419 20.5346 20.1458 20.7023 21.4645L29.901 93.7718C30.0683 95.0867 31.2698 96.017 32.5847 95.8497Z" fill="white"/>
<path d="M62.2493 13.76L84.4956 29.4225L68.0307 31.5171C66.1163 31.7607 64.3669 30.4062 64.1234 28.4918L62.2493 13.76Z" fill="#A8CCF8"/>
<rect x="29.2571" y="36.2112" width="25.8" height="3.6" rx="1.8" transform="rotate(-7.25 29.2571 36.2112)" fill="#A8CCF8"/>
<rect x="30.9985" y="49.9009" width="48.6" height="3.6" rx="1.8" transform="rotate(-7.25 30.9985 49.9009)" fill="#A8CCF8"/>
<rect x="32.7402" y="63.5905" width="48.6" height="3.6" rx="1.8" transform="rotate(-7.25 32.7402 63.5905)" fill="#A8CCF8"/>
<rect x="34.4817" y="77.2802" width="39" height="3.6" rx="1.8" transform="rotate(-7.25 34.4817 77.2802)" fill="#A8CCF8"/>
</svg>
